<?xml version="1.0" encoding="UTF-8" standalone="no"?>
<svg
   xmlns:dc="http://purl.org/dc/elements/1.1/"
   xmlns:cc="http://creativecommons.org/ns#"
   xmlns:rdf="http://www.w3.org/1999/02/22-rdf-syntax-ns#"
   xmlns:svg="http://www.w3.org/2000/svg"
   xmlns="http://www.w3.org/2000/svg"
   viewBox="0 0 793.76001 1122.5601"
   height="1122.5601"
   width="793.76001"
   xml:space="preserve"
   id="svg2"
   version="1.1"><metadata
     id="metadata8"><rdf:RDF><cc:Work
         rdf:about=""><dc:format>image/svg+xml</dc:format><dc:type
           rdf:resource="http://purl.org/dc/dcmitype/StillImage" /></cc:Work></rdf:RDF></metadata><defs
     id="defs6"><clipPath
       id="clipPath18"
       clipPathUnits="userSpaceOnUse"><path
         style="clip-rule:evenodd"
         id="path16"
         d="M 8.871e-6,0 H 595.32001 V 841.92 H 8.871e-6 Z" /></clipPath><clipPath
       id="clipPath30"
       clipPathUnits="userSpaceOnUse"><path
         style="clip-rule:evenodd"
         id="path28"
         d="M 8.871e-6,0 H 595.32001 V 841.92 H 8.871e-6 Z" /></clipPath><clipPath
       id="clipPath42"
       clipPathUnits="userSpaceOnUse"><path
         style="clip-rule:evenodd"
         id="path40"
         d="M 8.871e-6,0 H 595.32001 V 841.92 H 8.871e-6 Z" /></clipPath><clipPath
       id="clipPath54"
       clipPathUnits="userSpaceOnUse"><path
         style="clip-rule:evenodd"
         id="path52"
         d="M 8.871e-6,0 H 595.32001 V 841.92 H 8.871e-6 Z" /></clipPath><clipPath
       id="clipPath66"
       clipPathUnits="userSpaceOnUse"><path
         style="clip-rule:evenodd"
         id="path64"
         d="M 8.871e-6,0 H 595.32001 V 841.92 H 8.871e-6 Z" /></clipPath><clipPath
       id="clipPath78"
       clipPathUnits="userSpaceOnUse"><path
         style="clip-rule:evenodd"
         id="path76"
         d="M 8.871e-6,0 H 595.32001 V 841.92 H 8.871e-6 Z" /></clipPath><clipPath
       id="clipPath90"
       clipPathUnits="userSpaceOnUse"><path
         style="clip-rule:evenodd"
         id="path88"
         d="M 8.871e-6,0 H 595.32001 V 841.92 H 8.871e-6 Z" /></clipPath><clipPath
       id="clipPath102"
       clipPathUnits="userSpaceOnUse"><path
         style="clip-rule:evenodd"
         id="path100"
         d="M 8.871e-6,0 H 595.32001 V 841.92 H 8.871e-6 Z" /></clipPath><clipPath
       id="clipPath114"
       clipPathUnits="userSpaceOnUse"><path
         style="clip-rule:evenodd"
         id="path112"
         d="M 8.871e-6,0 H 595.32001 V 841.92 H 8.871e-6 Z" /></clipPath></defs><g
     transform="matrix(1.3333333,0,0,-1.3333333,0,1122.56)"
     id="g10"><g
       id="g12"><g
         clip-path="url(#clipPath18)"
         id="g14"><text
           id="text22"
           style="font-variant:normal;font-weight:normal;font-size:12.96000004px;font-family:YuMincho;-inkscape-font-specification:YuMincho-Regular;writing-mode:lr-tb;fill:#000000;fill-opacity:1;fill-rule:nonzero;stroke:none"
           transform="matrix(1,0,0,-1,85.104,720.1)"><tspan
             id="tspan20"
             y="0"
             x="0 12.96 25.92 38.880001 51.94368 64.903679 77.267517 90.227524 103.2912 116.35488 129.31488 142.27489 154.63872 167.59872 180.55872 193.0392 205.99921 218.9592 231.43968 244.39967 257.35968 269.72351 282.68353 295.64352 308.12399 321.08401 334.14767 347.21136 360.17136 373.13135 386.09137 399.15503 412.11505">認知科学は、人間の知識、思考、学習、意識、言語、情報処理などについ</tspan></text>
</g></g><g
       id="g24"><g
         clip-path="url(#clipPath30)"
         id="g26"><text
           id="text34"
           style="font-variant:normal;font-weight:normal;font-size:12.96000004px;font-family:YuMincho;-inkscape-font-specification:YuMincho-Regular;writing-mode:lr-tb;fill:#000000;fill-opacity:1;fill-rule:nonzero;stroke:none"
           transform="matrix(1,0,0,-1,85.104,684.1)"><tspan
             id="tspan32"
             y="0"
             x="0 12.96 25.92 38.880001 51.94368 64.903679 77.863678 90.927361 103.88736 116.95104 127.99296 140.95296 154.01665 166.97664 179.93665 193.00032 205.96033 218.92032 231.98399 244.944 257.90399 270.86401 283.92767 296.88766 309.84769 322.91135 335.87137 348.93503 361.89505 374.85504 386.01361 398.9736 411.93359">て研究する学問です。脳の機能や心のプロセスを科学的に探求し、それら</tspan></text>
</g></g><g
       id="g36"><g
         clip-path="url(#clipPath42)"
         id="g38"><text
           id="text46"
           style="font-variant:normal;font-weight:normal;font-size:12.96000004px;font-family:YuMincho;-inkscape-font-specification:YuMincho-Regular;writing-mode:lr-tb;fill:#000000;fill-opacity:1;fill-rule:nonzero;stroke:none"
           transform="matrix(1,0,0,-1,85.104,648.1)"><tspan
             id="tspan44"
             y="0"
             x="0 12.96 25.92 38.880001 51.94368 64.903679 77.863678 90.927361 103.88736 116.95104 129.91104 142.87103 155.83104 168.89471 181.85472 194.9184 204.04224 217.00224 230.06592 243.02592 255.98592 268.94592 282.00961 294.9696 307.9296 320.99329 333.95328 347.01697 359.97696 372.93695 385.89697 398.96063 411.92065">を解明することを目指しています。認知科学は多岐にわたる分野の知見を</tspan></text>
</g></g><g
       id="g48"><g
         clip-path="url(#clipPath54)"
         id="g50"><text
           id="text58"
           style="font-variant:normal;font-weight:normal;font-size:12.96000004px;font-family:YuMincho;-inkscape-font-specification:YuMincho-Regular;writing-mode:lr-tb;fill:#000000;fill-opacity:1;fill-rule:nonzero;stroke:none"
           transform="matrix(1,0,0,-1,85.104,612.1)"><tspan
             id="tspan56"
             y="0"
             x="0 12.96 25.92 38.880001 50.997601 63.9576 76.917603 89.981277 101.98224 115.04592 128.00592 140.96593 153.92592 166.04352 179.00352 191.96352 205.02721 217.9872 230.1048 243.0648 256.02481 268.9848 282.04849 295.00848 307.96848 321.03217 333.99216 347.05585 360.01584 372.97583 385.93585 398.99951 411.95953">統合し、心理学、神経科学、人工知能、言語学などと密接に関連していま</tspan></text>
</g></g><g
       id="g60"><g
         clip-path="url(#clipPath66)"
         id="g62"><text
           id="text70"
           style="font-variant:normal;font-weight:normal;font-size:12.96000004px;font-family:YuMincho;-inkscape-font-specification:YuMincho-Regular;writing-mode:lr-tb;fill:#000000;fill-opacity:1;fill-rule:nonzero;stroke:none"
           transform="matrix(1,0,0,-1,85.104,576.07)"><tspan
             id="tspan68"
             y="0"
             x="0 12.96 24.59808 37.661758 50.725441 62.363522 75.323517 88.387199 101.3472 114.41088 127.37088 140.33089 153.29088 166.35455 179.31456 192.27457 205.33824 218.29823 231.36192 244.32191 257.28192 270.24191 283.3056 296.26559 309.22559 322.28928 335.35297 347.10767 360.06769 373.02768 385.98767 399.05136 412.01135">す。また、コンピュータモデリングや実験手法を駆使して、心の働きや認</tspan></text>
</g></g><g
       id="g72"><g
         clip-path="url(#clipPath78)"
         id="g74"><text
           id="text82"
           style="font-variant:normal;font-weight:normal;font-size:12.96000004px;font-family:YuMincho;-inkscape-font-specification:YuMincho-Regular;writing-mode:lr-tb;fill:#000000;fill-opacity:1;fill-rule:nonzero;stroke:none"
           transform="matrix(1,0,0,-1,85.104,540.07)"><tspan
             id="tspan80"
             y="0"
             x="0 13.08 26.16 39.240002 52.32 65.400002 78.480003 91.559998 104.64 117.72 130.8 143.88 156.96001 170.03999 183.12 196.2 209.28 222.36 235.44 248.52 261.60001 274.67999 287.76001 300.84 313.92001 327 340.07999 353.16 366.23999 379.32001 392.39999 405.48001 418.56">知プロセスを明らかにしています。認知科学の研究成果は、教育、医療、</tspan></text>
</g></g><g
       id="g84"><g
         clip-path="url(#clipPath90)"
         id="g86"><text
           id="text94"
           style="font-variant:normal;font-weight:normal;font-size:12.96000004px;font-family:YuMincho;-inkscape-font-specification:YuMincho-Regular;writing-mode:lr-tb;fill:#000000;fill-opacity:1;fill-rule:nonzero;stroke:none"
           transform="matrix(1,0,0,-1,85.104,504.07)"><tspan
             id="tspan92"
             y="0"
             x="0 12.96 25.92 38.880001 51.94368 62.9856 76.049278 89.009277 101.96928 115.03296 127.99296 140.95296 153.91296 166.97664 179.93665 192.89664 205.96033 218.92032 231.98399 244.944 255.98592 269.04959 282.00961 294.9696 308.03329 320.99329 333.95328 347.01697 359.97696 372.93695 385.89697 398.96063 411.92065">人間工学、情報技術などの分野で応用され、人間の認知能力やパフォーマ</tspan></text>
</g></g><g
       id="g96"><g
         clip-path="url(#clipPath102)"
         id="g98"><text
           id="text106"
           style="font-variant:normal;font-weight:normal;font-size:12.96000004px;font-family:YuMincho;-inkscape-font-specification:YuMincho-Regular;writing-mode:lr-tb;fill:#000000;fill-opacity:1;fill-rule:nonzero;stroke:none"
           transform="matrix(1,0,0,-1,85.104,468.07)"><tspan
             id="tspan104"
             y="0"
             x="0 12.96 25.92 38.880001 51.94368 64.903679 77.863678 90.927361 103.88736 116.95104 129.91104 142.87103 155.83104 168.89471">ンスの向上に貢献しています。</tspan></text>
</g></g><g
       id="g108"><g
         clip-path="url(#clipPath114)"
         id="g110" /></g></g></svg>