<?xml version="1.0" encoding="UTF-8" standalone="no"?>
<svg
   xmlns:dc="http://purl.org/dc/elements/1.1/"
   xmlns:cc="http://creativecommons.org/ns#"
   xmlns:rdf="http://www.w3.org/1999/02/22-rdf-syntax-ns#"
   xmlns:svg="http://www.w3.org/2000/svg"
   xmlns="http://www.w3.org/2000/svg"
   viewBox="0 0 793.76001 1122.5601"
   height="1122.5601"
   width="793.76001"
   xml:space="preserve"
   id="svg2"
   version="1.1"><metadata
     id="metadata8"><rdf:RDF><cc:Work
         rdf:about=""><dc:format>image/svg+xml</dc:format><dc:type
           rdf:resource="http://purl.org/dc/dcmitype/StillImage" /></cc:Work></rdf:RDF></metadata><defs
     id="defs6"><clipPath
       id="clipPath18"
       clipPathUnits="userSpaceOnUse"><path
         style="clip-rule:evenodd"
         id="path16"
         d="M 8.871e-6,0 H 595.32001 V 841.92 H 8.871e-6 Z" /></clipPath><clipPath
       id="clipPath30"
       clipPathUnits="userSpaceOnUse"><path
         style="clip-rule:evenodd"
         id="path28"
         d="M 8.871e-6,0 H 595.32001 V 841.92 H 8.871e-6 Z" /></clipPath><clipPath
       id="clipPath42"
       clipPathUnits="userSpaceOnUse"><path
         style="clip-rule:evenodd"
         id="path40"
         d="M 8.871e-6,0 H 595.32001 V 841.92 H 8.871e-6 Z" /></clipPath><clipPath
       id="clipPath54"
       clipPathUnits="userSpaceOnUse"><path
         style="clip-rule:evenodd"
         id="path52"
         d="M 8.871e-6,0 H 595.32001 V 841.92 H 8.871e-6 Z" /></clipPath><clipPath
       id="clipPath66"
       clipPathUnits="userSpaceOnUse"><path
         style="clip-rule:evenodd"
         id="path64"
         d="M 8.871e-6,0 H 595.32001 V 841.92 H 8.871e-6 Z" /></clipPath><clipPath
       id="clipPath78"
       clipPathUnits="userSpaceOnUse"><path
         style="clip-rule:evenodd"
         id="path76"
         d="M 8.871e-6,0 H 595.32001 V 841.92 H 8.871e-6 Z" /></clipPath><clipPath
       id="clipPath90"
       clipPathUnits="userSpaceOnUse"><path
         style="clip-rule:evenodd"
         id="path88"
         d="M 8.871e-6,0 H 595.32001 V 841.92 H 8.871e-6 Z" /></clipPath><clipPath
       id="clipPath102"
       clipPathUnits="userSpaceOnUse"><path
         style="clip-rule:evenodd"
         id="path100"
         d="M 8.871e-6,0 H 595.32001 V 841.92 H 8.871e-6 Z" /></clipPath></defs><g
     transform="matrix(1.3333333,0,0,-1.3333333,0,1122.56)"
     id="g10"><g
       id="g12"><g
         clip-path="url(#clipPath18)"
         id="g14"><text
           id="text22"
           style="font-variant:normal;font-weight:normal;font-size:12px;font-family:HGPKyokashotai;-inkscape-font-specification:HGPKyokashotai;writing-mode:lr-tb;fill:#000000;fill-opacity:1;fill-rule:nonzero;stroke:none"
           transform="matrix(1,0,0,-1,85.104,729.34)"><tspan
             id="tspan20"
             y="0"
             x="0 12 24 36 48 57.936001 65.987999 77.987999 89.987999 100.656 112.764 124.764 132.68401 144.68401 156.79201 164.71201 176.71201 188.82001 196.74001 208.74001 220.84801 228.87601 240.87601 252.87601 260.79599 272.79599 284.90399 296.90399 308.90399 319.21201 328.67999 338.74799 349.776 360.60001 369.84 381.84 393.84 404.604 413.004">認知科学は、人間の知識、思考、学習、意識、言語、情報処理などについて研究する学</tspan></text>
</g></g><g
       id="g24"><g
         clip-path="url(#clipPath30)"
         id="g26"><text
           id="text34"
           style="font-variant:normal;font-weight:normal;font-size:12px;font-family:HGPKyokashotai;-inkscape-font-specification:HGPKyokashotai;writing-mode:lr-tb;fill:#000000;fill-opacity:1;fill-rule:nonzero;stroke:none"
           transform="matrix(1,0,0,-1,85.104,711.34)"><tspan
             id="tspan32"
             y="0"
             x="0 12.108 22.535999 33.324001 41.352001 53.580002 64.248001 76.475998 88.584 100.092 112.32 122.988 133.536 142.884 153.672 163.25999 171.64799 183.756 195.98399 208.092 218.28 230.508 242.616 250.04401 258.19199 266.82001 277.96799 286.47601 294.86401 307.09201 319.20001 329.98801 338.73599 346.884 355.15201 363.54001 375.64801 387.75601 395.18399 404.65201 415.56">問です。脳の機能や心のプロセスを科学的に探求し、それらを解明することを目指していま</tspan></text>
</g></g><g
       id="g36"><g
         clip-path="url(#clipPath42)"
         id="g38"><text
           id="text46"
           style="font-variant:normal;font-weight:normal;font-size:12px;font-family:HGPKyokashotai;-inkscape-font-specification:HGPKyokashotai;writing-mode:lr-tb;fill:#000000;fill-opacity:1;fill-rule:nonzero;stroke:none"
           transform="matrix(1,0,0,-1,85.104,693.34)"><tspan
             id="tspan44"
             y="0"
             x="0 11.028 19.296 31.643999 43.992001 56.220001 68.568001 78.755997 91.103996 103.332 113.64 124.548 134.616 143.48399 155.71201 168.06 178.968 191.31599 203.54401 212.172 224.39999 236.748 244.416 252.68401 265.03201 277.26001 289.608 297.87601 310.104 322.452 334.79999 347.02802 355.29599 367.64401 379.992 392.34 404.68799 412.95599">す。認知科学は多岐にわたる分野の知見を統合し、心理学、神経科学、人工知能、言</tspan></text>
</g></g><g
       id="g48"><g
         clip-path="url(#clipPath54)"
         id="g50"><text
           id="text58"
           style="font-variant:normal;font-weight:normal;font-size:12px;font-family:HGPKyokashotai;-inkscape-font-specification:HGPKyokashotai;writing-mode:lr-tb;fill:#000000;fill-opacity:1;fill-rule:nonzero;stroke:none"
           transform="matrix(1,0,0,-1,85.104,675.34)"><tspan
             id="tspan56"
             y="0"
             x="0 12.108 24.216 34.644001 44.112 52.380001 64.487999 76.596001 86.664001 98.772003 110.88 118.188 127.548 138.45599 147.68401 158.472 166.5 175.728 185.556 193.584 202.93201 212.03999 220.188 228.696 239.724 248.832 259.38 269.80801 276.51599 285.62399 295.57199 307.07999 319.18799 331.29599 343.40399 355.40399 363.79199 375.89999 388.008 395.436 404.784 412.81201">語学などと密接に関連しています。また、コンピュータモデリングや実験手法を駆使して、心</tspan></text>
</g></g><g
       id="g60"><g
         clip-path="url(#clipPath66)"
         id="g62"><text
           id="text70"
           style="font-variant:normal;font-weight:normal;font-size:12px;font-family:HGPKyokashotai;-inkscape-font-specification:HGPKyokashotai;writing-mode:lr-tb;fill:#000000;fill-opacity:1;fill-rule:nonzero;stroke:none"
           transform="matrix(1,0,0,-1,85.104,657.34)"><tspan
             id="tspan68"
             y="0"
             x="0 10.56 22.667999 30.959999 42.335999 54.335999 66.335999 76.884003 86.124001 96.792 106.272 114.66 126.66 135.168 146.23199 156.26401 163.57201 172.95599 183.864 193.008 203.772 211.692 223.8 235.908 247.908 259.90799 270.57599 282.57599 294.68399 306.68399 318.68399 328.75201 336.672 348.78 360.78 368.80801 380.80801 392.91599 400.836 412.836">の働きや認知プロセスを明らかにしています。認知科学の研究成果は、教育、医療、人間</tspan></text>
</g></g><g
       id="g72"><g
         clip-path="url(#clipPath78)"
         id="g74"><text
           id="text82"
           style="font-variant:normal;font-weight:normal;font-size:12px;font-family:HGPKyokashotai;-inkscape-font-specification:HGPKyokashotai;writing-mode:lr-tb;fill:#000000;fill-opacity:1;fill-rule:nonzero;stroke:none"
           transform="matrix(1,0,0,-1,85.104,639.34)"><tspan
             id="tspan80"
             y="0"
             x="0 12.228 24.576 32.723999 45.071999 57.299999 69.648003 81.875999 92.424004 102.132 113.04 125.268 137.496 148.04401 160.392 172.62 180.64799 191.916 200.18401 212.412 224.75999 235.668 247.896 260.12399 272.47198 284.70001 296.328 307.95599 318.14401 325.81201 336.95999 347.86801 357.216 366.92401 377.832 390.06 402.28799 412.59601">工学、情報技術などの分野で応用され、人間の認知能力やパフォーマンスの向上に貢</tspan></text>
</g></g><g
       id="g84"><g
         clip-path="url(#clipPath90)"
         id="g86"><text
           id="text94"
           style="font-variant:normal;font-weight:normal;font-size:12px;font-family:HGPKyokashotai;-inkscape-font-specification:HGPKyokashotai;writing-mode:lr-tb;fill:#000000;fill-opacity:1;fill-rule:nonzero;stroke:none"
           transform="matrix(1,0,0,-1,85.104,621.34)"><tspan
             id="tspan92"
             y="0"
             x="0 12 19.308001 28.548 39.372002 48.515999 59.16">献しています。</tspan></text>
</g></g><g
       id="g96"><g
         clip-path="url(#clipPath102)"
         id="g98" /></g></g></svg>